<svg width="33" height="32" fill="none" xmlns="http://www.w3.org/2000/svg"><g clip-path="url(#a)"><path d="M33 16.098c0-8.836-7.388-16-16.5-16S0 7.262 0 16.098c0 7.986 6.034 14.605 13.922 15.805v-11.18h-4.19v-4.627h4.19v-3.522c0-4.01 2.464-6.226 6.233-6.226 1.804 0 3.693.314 3.693.314v3.937h-2.082c-2.05 0-2.69 1.233-2.69 2.499v3h4.577l-.732 4.626h-3.844v11.18C26.967 30.703 33 24.083 33 16.098Z" fill="url(#b)"/></g><defs><linearGradient id="b" x1="16.5" y1=".098" x2="16.5" y2="31.904" gradientUnits="userSpaceOnUse"><stop stop-color="#FFBF00"/><stop offset="1" stop-color="#F2A50C"/></linearGradient><clipPath id="a"><path fill="#fff" d="M0 0h33v32H0z"/></clipPath></defs></svg>