<svg width="33" height="32" fill="none" xmlns="http://www.w3.org/2000/svg"><g clip-path="url(#a)"><path d="M16.5 0c-4.482 0-5.042.02-6.802.096C7.94.176 6.744.444 5.692.84A8.11 8.11 0 0 0 2.77 2.685 7.787 7.787 0 0 0 .866 5.52C.458 6.54.18 7.7.1 9.404.016 11.111 0 11.654 0 16c0 4.347.02 4.89.099 6.596.082 1.703.359 2.864.767 3.884a7.827 7.827 0 0 0 1.903 2.835 8.1 8.1 0 0 0 2.923 1.845c1.054.395 2.25.665 4.006.744 1.76.08 2.32.096 6.802.096 4.483 0 5.042-.02 6.802-.096 1.756-.08 2.954-.35 4.006-.744a8.14 8.14 0 0 0 2.923-1.845 7.794 7.794 0 0 0 1.903-2.835c.407-1.02.686-2.181.767-3.884.082-1.707.099-2.25.099-6.596 0-4.347-.02-4.89-.099-6.596-.083-1.703-.36-2.865-.767-3.884a7.832 7.832 0 0 0-1.903-2.835A8.07 8.07 0 0 0 27.307.84C26.257.444 25.059.175 23.303.096 21.542.016 20.982 0 16.5 0Zm0 2.88c4.404 0 4.93.021 6.669.095 1.608.073 2.482.332 3.062.553.773.29 1.32.636 1.9 1.195a4.93 4.93 0 0 1 1.232 1.841c.226.563.495 1.41.568 2.97.078 1.687.096 2.194.096 6.466s-.02 4.78-.102 6.467c-.083 1.56-.352 2.406-.578 2.969-.308.75-.659 1.28-1.237 1.843-.576.558-1.133.905-1.897 1.194-.578.219-1.464.48-3.073.551-1.752.076-2.268.093-6.681.093-4.415 0-4.931-.02-6.681-.098-1.61-.082-2.497-.342-3.075-.562-.782-.298-1.32-.638-1.896-1.198-.579-.559-.949-1.099-1.238-1.84-.226-.56-.493-1.42-.577-2.98-.062-1.68-.084-2.199-.084-6.459 0-4.261.022-4.781.084-6.481.084-1.56.35-2.419.578-2.979.288-.76.658-1.28 1.237-1.841.576-.559 1.114-.919 1.896-1.198C7.281 3.26 8.148 3 9.757 2.92c1.753-.06 2.269-.08 6.681-.08l.062.04Zm0 4.904c-4.682 0-8.473 3.68-8.473 8.216 0 4.54 3.795 8.216 8.473 8.216 4.682 0 8.473-3.68 8.473-8.216 0-4.54-3.795-8.216-8.473-8.216Zm0 13.55c-3.039 0-5.5-2.387-5.5-5.334 0-2.947 2.461-5.333 5.5-5.333S22 13.053 22 16s-2.461 5.333-5.5 5.333ZM27.288 7.46c0 1.06-.888 1.92-1.98 1.92-1.093 0-1.98-.861-1.98-1.92s.889-1.919 1.98-1.919c1.09-.001 1.98.86 1.98 1.919Z" fill="url(#b)"/></g><defs><linearGradient id="b" x1="16.5" y1="0" x2="16.5" y2="32" gradientUnits="userSpaceOnUse"><stop stop-color="#FFBF00"/><stop offset="1" stop-color="#F2A50C"/></linearGradient><clipPath id="a"><path fill="#fff" d="M0 0h33v32H0z"/></clipPath></defs></svg>