<svg width="33" height="32" fill="none" xmlns="http://www.w3.org/2000/svg"><path d="M32.31 8.248a3.994 3.994 0 0 0-1.066-1.802c-.512-.5-1.151-.86-1.852-1.046-2.573-.673-12.892-.673-12.892-.673s-10.32 0-12.893.673a4.18 4.18 0 0 0-1.851 1.046c-.512.5-.88 1.121-1.066 1.802C0 10.76 0 16 0 16s0 5.24.69 7.752a3.993 3.993 0 0 0 1.066 1.802c.512.5 1.151.86 1.852 1.046 2.573.673 12.892.673 12.892.673s10.32 0 12.893-.673a4.176 4.176 0 0 0 1.852-1.046c.512-.5.88-1.121 1.066-1.802C33 21.24 33 16 33 16s0-5.24-.69-7.752Zm-19.186 12.51v-9.515L21.75 16l-8.626 4.757Z" fill="url(#a)"/><defs><linearGradient id="a" x1="16.5" y1="4.727" x2="16.5" y2="27.273" gradientUnits="userSpaceOnUse"><stop stop-color="#FFBF00"/><stop offset="1" stop-color="#F2A50C"/></linearGradient></defs></svg>