<svg width="52" height="53" fill="none" xmlns="http://www.w3.org/2000/svg"><path d="M48 14.984a2 2 0 1 1 4 0 2 2 0 0 1-4 0ZM48 2.984a2 2 0 1 1 4 0 2 2 0 0 1-4 0ZM36 38.984a2 2 0 1 1 4 0 2 2 0 0 1-4 0ZM36 26.984a2 2 0 1 1 4 0 2 2 0 0 1-4 0ZM36 14.984a2 2 0 1 1 4 0 2 2 0 0 1-4 0ZM36 2.984a2 2 0 1 1 4 0 2 2 0 0 1-4 0ZM24 38.984a2 2 0 1 1 4 0 2 2 0 0 1-4 0ZM24 26.984a2 2 0 1 1 4 0 2 2 0 0 1-4 0ZM24 14.984a2 2 0 1 1 4 0 2 2 0 0 1-4 0ZM24 2.984a2 2 0 1 1 4 0 2 2 0 0 1-4 0ZM12 50.984a2 2 0 1 1 4 0 2 2 0 0 1-4 0ZM12 38.984a2 2 0 1 1 4 0 2 2 0 0 1-4 0ZM12 26.984a2 2 0 1 1 4 0 2 2 0 0 1-4 0ZM12 14.984a2 2 0 1 1 4 0 2 2 0 0 1-4 0ZM12 2.984a2 2 0 1 1 4 0 2 2 0 0 1-4 0ZM0 50.984a2 2 0 1 1 4 0 2 2 0 0 1-4 0ZM0 38.984a2 2 0 1 1 4 0 2 2 0 0 1-4 0ZM0 26.984a2 2 0 1 1 4 0 2 2 0 0 1-4 0ZM0 14.984a2 2 0 1 1 4 0 2 2 0 0 1-4 0ZM0 2.984a2 2 0 1 1 4 0 2 2 0 0 1-4 0Z" fill="gray" fill-opacity=".3"/></svg>