<svg width="54" height="62" fill="none" xmlns="http://www.w3.org/2000/svg"><path d="M50.02 14.684a2 2 0 1 1 3.913-.832 2 2 0 0 1-3.912.832ZM47.523 2.947a2 2 0 1 1 3.913-.833 2 2 0 0 1-3.913.833ZM43.278 40.656a2 2 0 1 1 3.913-.832 2 2 0 0 1-3.913.832ZM40.78 28.919a2 2 0 1 1 3.913-.833 2 2 0 0 1-3.912.833ZM38.283 17.181a2 2 0 1 1 3.913-.832 2 2 0 0 1-3.913.832ZM35.786 5.444a2 2 0 1 1 3.913-.832 2 2 0 0 1-3.913.832ZM31.54 43.153a2 2 0 1 1 3.913-.832 2 2 0 0 1-3.912.832ZM29.044 31.416a2 2 0 1 1 3.912-.832 2 2 0 0 1-3.913.832ZM26.546 19.679a2 2 0 1 1 3.913-.833 2 2 0 0 1-3.913.833ZM24.049 7.942a2 2 0 1 1 3.912-.833 2 2 0 0 1-3.912.833ZM22.3 57.388a2 2 0 1 1 3.913-.832 2 2 0 0 1-3.912.832ZM19.804 45.65a2 2 0 1 1 3.912-.832 2 2 0 0 1-3.912.833ZM17.306 33.913a2 2 0 1 1 3.913-.832 2 2 0 0 1-3.913.832ZM14.809 22.176a2 2 0 1 1 3.912-.832 2 2 0 0 1-3.912.832ZM12.312 10.439a2 2 0 1 1 3.912-.833 2 2 0 0 1-3.912.833ZM10.564 59.885a2 2 0 1 1 3.912-.832 2 2 0 0 1-3.912.832ZM8.066 48.148a2 2 0 1 1 3.913-.832 2 2 0 0 1-3.913.832ZM5.569 36.41a2 2 0 1 1 3.912-.832 2 2 0 0 1-3.912.833ZM3.072 24.674a2 2 0 1 1 3.912-.833 2 2 0 0 1-3.912.832ZM.574 12.936a2 2 0 1 1 3.913-.832 2 2 0 0 1-3.913.832Z" fill="#E6A40B"/></svg>