<svg width="31" height="32" fill="none" xmlns="http://www.w3.org/2000/svg"><path d="M21.958 22.653c-1.744 0-2.842.56-3.81 1.067-.84.44-1.525.8-2.648.8-1.163 0-1.809-.333-2.648-.8-.969-.507-2.028-1.067-3.81-1.067-1.783 0-2.842.56-3.811 1.067-.555.293-1.046.547-1.64.693-.582.134-1.008.614-1.008 1.214v.133c0 .8.723 1.373 1.473 1.213.955-.2 1.679-.573 2.337-.92.84-.44 1.512-.8 2.648-.8 1.137 0 1.809.334 2.648.8.969.507 2.028 1.067 3.81 1.067 1.783 0 2.842-.56 3.811-1.067.84-.44 1.524-.8 2.648-.8 1.163 0 1.808.334 2.648.8.672.347 1.395.734 2.364.934a1.178 1.178 0 0 0 .998-.258c.138-.116.25-.261.327-.426.078-.166.119-.346.121-.53v-.12c0-.613-.439-1.093-1.02-1.226-.594-.134-1.072-.387-1.628-.694-.968-.52-2.066-1.08-3.81-1.08Zm0-5.933c-1.744 0-2.842.573-3.81 1.067-.84.426-1.525.8-2.648.8-1.163 0-1.809-.334-2.648-.8-.969-.507-2.028-1.067-3.81-1.067-1.783 0-2.842.573-3.811 1.067-.555.28-1.046.546-1.653.693-.569.133-.995.613-.995 1.213v.134c0 .184.04.366.117.532.076.167.188.313.327.43a1.164 1.164 0 0 0 1.003.251c.968-.2 1.692-.587 2.363-.92.84-.467 1.486-.8 2.648-.8 1.163 0 1.809.333 2.648.8.969.507 2.028 1.067 3.81 1.067 1.783 0 2.842-.574 3.811-1.067.84-.467 1.486-.8 2.648-.8 1.163 0 1.808.333 2.648.8.672.347 1.395.733 2.364.933a1.178 1.178 0 0 0 1.003-.261 1.25 1.25 0 0 0 .326-.432c.077-.166.117-.349.117-.533v-.12c0-.614-.439-1.094-1.02-1.227-.594-.133-1.072-.387-1.628-.693-.968-.507-2.066-1.067-3.81-1.067Zm3.81-10.773c-.968-.507-2.04-1.067-3.81-1.067s-2.842.56-3.81 1.067c-.84.426-1.525.8-2.648.8-1.163 0-1.809-.334-2.648-.8-.969-.494-2.028-1.067-3.81-1.067-1.783 0-2.842.56-3.811 1.067-.555.293-1.046.546-1.64.693-.582.133-1.008.613-1.008 1.213v.094c0 .8.698 1.386 1.447 1.226.968-.2 1.692-.586 2.363-.92.84-.44 1.512-.8 2.648-.8 1.137 0 1.809.334 2.648.8.969.507 2.028 1.067 3.81 1.067 1.783 0 2.842-.573 3.811-1.067.84-.426 1.524-.8 2.648-.8 1.163 0 1.808.334 2.648.8.672.347 1.395.734 2.364.934a1.177 1.177 0 0 0 1.003-.262 1.25 1.25 0 0 0 .326-.431c.077-.167.117-.35.117-.534v-.12c0-.613-.439-1.093-1.02-1.227-.594-.133-1.072-.373-1.628-.666Zm-3.81 4.84c-1.744 0-2.842.573-3.81 1.066-.84.467-1.486.8-2.648.8-1.163 0-1.809-.333-2.648-.8-.969-.506-2.028-1.066-3.81-1.066-1.783 0-2.842.573-3.811 1.066-.555.307-1.033.56-1.628.694-.58.133-1.02.613-1.02 1.226v.12c0 .185.04.366.117.533.076.166.188.313.327.43a1.164 1.164 0 0 0 1.003.252c.968-.201 1.692-.588 2.363-.921.84-.427 1.525-.8 2.648-.8 1.124 0 1.809.333 2.648.8.969.506 2.028 1.066 3.81 1.066 1.783 0 2.842-.573 3.811-1.066.84-.427 1.524-.8 2.648-.8 1.163 0 1.808.333 2.648.8.672.346 1.395.733 2.364.933a1.176 1.176 0 0 0 .998-.257 1.285 1.285 0 0 0 .448-.956v-.12c0-.614-.439-1.094-1.02-1.227-.594-.133-1.072-.387-1.628-.693-.968-.52-2.066-1.08-3.81-1.08Z" fill="url(#a)"/><defs><linearGradient id="a" x1="15.5" y1="4.88" x2="15.5" y2="27.12" gradientUnits="userSpaceOnUse"><stop stop-color="#FFBF00"/><stop offset="1" stop-color="#F2A50C"/></linearGradient></defs></svg>