<svg width="31" height="32" fill="none" xmlns="http://www.w3.org/2000/svg"><g clip-path="url(#a)"><path d="M24.542 9.333h-1.06l-2.195-6.24a2.669 2.669 0 0 0-.947-1.274 2.538 2.538 0 0 0-1.482-.486h-2.066c-.71 0-1.292.6-1.292 1.334C15.5 3.4 16.081 4 16.792 4h2.066l1.886 5.333h-6.213L14.066 8h.116c.71 0 1.292-.6 1.292-1.333 0-.734-.581-1.334-1.292-1.334h-3.849c-.71 0-1.291.6-1.291 1.334C9.042 7.4 9.622 8 10.333 8h.97l2.35 6.667h-.866c-.568-2.974-2.983-5.174-6.006-5.32C3.165 9.16 0 12.267 0 16c0 3.733 2.842 6.667 6.458 6.667 3.178 0 5.748-2.254 6.33-5.334h5.424c.569 2.974 2.984 5.174 6.007 5.32 3.616.174 6.781-2.92 6.781-6.666 0-3.72-2.842-6.654-6.458-6.654Zm-16.792 8h2.35c-.542 1.64-2.066 2.774-3.9 2.654-1.925-.12-3.526-1.8-3.617-3.8C2.493 13.853 4.223 12 6.458 12c1.718 0 3.126 1.107 3.643 2.667H7.75c-.71 0-1.292.6-1.292 1.333s.582 1.333 1.292 1.333Zm10.462-2.666h-1.808L15.461 12h3.914a6.41 6.41 0 0 0-1.163 2.667ZM24.387 20c-1.99-.08-3.669-1.827-3.72-3.893-.026-1.28.503-2.4 1.356-3.147l.8 2.267c.246.693.982 1.053 1.654.8a1.342 1.342 0 0 0 .775-1.707l-.814-2.307.013-.013a3.728 3.728 0 0 1 1.517.265c.483.194.924.486 1.294.86s.664.821.863 1.316A4.07 4.07 0 0 1 28.417 16c0 2.293-1.783 4.08-4.03 4Zm-10.179 6.667H9.042l7.75 4V28h5.166l-7.75-4v2.667Z" fill="url(#b)"/></g><defs><linearGradient id="b" x1="15.5" y1="1.333" x2="15.5" y2="30.667" gradientUnits="userSpaceOnUse"><stop stop-color="#FFBF00"/><stop offset="1" stop-color="#F2A50C"/></linearGradient><clipPath id="a"><path fill="#fff" d="M0 0h31v32H0z"/></clipPath></defs></svg>