<svg width="31" height="32" fill="none" xmlns="http://www.w3.org/2000/svg"><path d="M15.5 10.667c-2.855 0-5.167 2.386-5.167 5.333s2.312 5.333 5.167 5.333c2.854 0 5.166-2.386 5.166-5.333s-2.312-5.333-5.166-5.333Zm11.547 4a12.15 12.15 0 0 0-3.33-7.149 11.475 11.475 0 0 0-6.925-3.438V2.667c0-.734-.582-1.334-1.292-1.334-.71 0-1.292.6-1.292 1.334V4.08a11.475 11.475 0 0 0-6.925 3.438 12.151 12.151 0 0 0-3.33 7.149h-1.37c-.71 0-1.292.6-1.292 1.333s.582 1.333 1.292 1.333h1.37a12.151 12.151 0 0 0 3.33 7.149 11.475 11.475 0 0 0 6.925 3.438v1.413c0 .734.581 1.334 1.292 1.334.71 0 1.291-.6 1.291-1.334V27.92a11.475 11.475 0 0 0 6.925-3.438 12.15 12.15 0 0 0 3.331-7.149h1.37c.71 0 1.291-.6 1.291-1.333s-.581-1.333-1.291-1.333h-1.37ZM15.5 25.333c-4.999 0-9.042-4.173-9.042-9.333s4.043-9.333 9.042-9.333S24.54 10.84 24.54 16 20.5 25.333 15.5 25.333Z" fill="url(#a)"/><defs><linearGradient id="a" x1="15.5" y1="1.333" x2="15.5" y2="30.667" gradientUnits="userSpaceOnUse"><stop stop-color="#FFBF00"/><stop offset="1" stop-color="#F2A50C"/></linearGradient></defs></svg>