<svg width="31" height="32" fill="none" xmlns="http://www.w3.org/2000/svg"><path d="M23.25 10.667H21.96V8c0-3.68-2.894-6.667-6.459-6.667-3.565 0-6.458 2.987-6.458 6.667v2.667H7.75c-1.42 0-2.583 1.2-2.583 2.666v13.334c0 1.466 1.162 2.666 2.583 2.666h15.5c1.421 0 2.584-1.2 2.584-2.666V13.333c0-1.466-1.163-2.666-2.584-2.666Zm-7.75 12c-1.42 0-2.583-1.2-2.583-2.667 0-1.467 1.162-2.667 2.583-2.667 1.421 0 2.584 1.2 2.584 2.667 0 1.467-1.163 2.667-2.584 2.667Zm-3.875-12V8c0-2.213 1.731-4 3.875-4 2.145 0 3.875 1.787 3.875 4v2.667h-7.75Z" fill="url(#a)"/><defs><linearGradient id="a" x1="15.5" y1="1.333" x2="15.5" y2="29.333" gradientUnits="userSpaceOnUse"><stop stop-color="#FFBF00"/><stop offset="1" stop-color="#F2A50C"/></linearGradient></defs></svg>