<svg width="31" height="32" fill="none" xmlns="http://www.w3.org/2000/svg"><path d="M7.815 10.733a9.489 9.489 0 0 0-2.648 6.581 9.492 9.492 0 0 0 2.622 6.593c1.899-4.534 5.283-8.32 9.507-10.574-3.646 3.184-6.107 7.577-6.962 12.427a8.839 8.839 0 0 0 10.269-1.827c3.862-3.986 4.947-14.853 5.18-17.84a.672.672 0 0 0-.183-.518.63.63 0 0 0-.502-.188c-2.894.24-13.42 1.36-17.283 5.346Z" fill="url(#a)"/><defs><linearGradient id="a" x1="15.476" y1="5.384" x2="15.476" y2="26.659" gradientUnits="userSpaceOnUse"><stop stop-color="#FFBF00"/><stop offset="1" stop-color="#F2A50C"/></linearGradient></defs></svg>