<svg width="31" height="32" fill="none" xmlns="http://www.w3.org/2000/svg"><path d="M25.136 13.333a1.361 1.361 0 0 0-.09 1.334c.32.772.546 1.582.671 2.413a10.975 10.975 0 0 1-.891 6.307c-.111.215-.277.394-.48.519a1.26 1.26 0 0 1-.67.187H7.336c-.237 0-.47-.066-.672-.193a1.317 1.317 0 0 1-.477-.527 10.964 10.964 0 0 1 .866-10.924 10.404 10.404 0 0 1 4.284-3.575c1.715-.77 3.6-1.044 5.455-.794a9.688 9.688 0 0 1 2.725.747 1.257 1.257 0 0 0 1.292-.094c.196-.133.353-.32.454-.538a1.371 1.371 0 0 0-.128-1.37 1.298 1.298 0 0 0-.546-.438 12.543 12.543 0 0 0-7.913-.757A12.841 12.841 0 0 0 5.83 9.799a13.546 13.546 0 0 0-3.185 7.516 13.688 13.688 0 0 0 1.681 8.018c.225.403.549.739.939.972.39.234.832.359 1.283.362h17.89c.454.002.902-.12 1.297-.355.394-.234.722-.572.95-.979a13.715 13.715 0 0 0 .71-11.853 1.323 1.323 0 0 0-.443-.536 1.266 1.266 0 0 0-1.313-.085c-.206.109-.38.272-.504.474Z" fill="url(#a)"/><path d="M13.679 16.787a2.712 2.712 0 0 0-.757 1.886c0 .35.067.698.197 1.021.13.324.32.618.56.866.24.248.525.444.838.578.314.134.65.203.99.203.685 0 1.343-.28 1.827-.781l7.311-11.32-10.966 7.547Z" fill="url(#b)"/><defs><linearGradient id="a" x1="15.498" y1="5.308" x2="15.498" y2="26.667" gradientUnits="userSpaceOnUse"><stop stop-color="#FFBF00"/><stop offset="1" stop-color="#F2A50C"/></linearGradient><linearGradient id="b" x1="18.784" y1="9.24" x2="18.784" y2="21.341" gradientUnits="userSpaceOnUse"><stop stop-color="#FFBF00"/><stop offset="1" stop-color="#F2A50C"/></linearGradient></defs></svg>